<?xml version="1.0" encoding="UTF-8" standalone="no"?>
<!-- Created with Inkscape (http://www.inkscape.org/) -->

<svg
   width="32mm"
   height="32mm"
   viewBox="0 0 32 32"
   version="1.1"
   id="svg1"
   xml:space="preserve"
   inkscape:version="1.4 (e7c3feb100, 2024-10-09)"
   sodipodi:docname="favicon.svg"
   xmlns:inkscape="http://www.inkscape.org/namespaces/inkscape"
   xmlns:sodipodi="http://sodipodi.sourceforge.net/DTD/sodipodi-0.dtd"
   xmlns="http://www.w3.org/2000/svg"
   xmlns:svg="http://www.w3.org/2000/svg"><sodipodi:namedview
     id="namedview1"
     pagecolor="#ffffff"
     bordercolor="#000000"
     borderopacity="0.25"
     inkscape:showpageshadow="2"
     inkscape:pageopacity="0.0"
     inkscape:pagecheckerboard="0"
     inkscape:deskcolor="#d1d1d1"
     inkscape:document-units="mm"
     inkscape:zoom="4.2715225"
     inkscape:cx="83.576757"
     inkscape:cy="66.252724"
     inkscape:window-width="1504"
     inkscape:window-height="929"
     inkscape:window-x="0"
     inkscape:window-y="0"
     inkscape:window-maximized="1"
     inkscape:current-layer="g24" /><defs
     id="defs1" /><g
     inkscape:label="Layer 1"
     inkscape:groupmode="layer"
     id="layer1"><g
       id="g24"
       transform="matrix(1.0207689,0,0,1.0207689,-0.42720185,-0.42720185)"><path
         id="rect3"
         style="fill:#201e57;fill-opacity:1;stroke-width:9.0239"
         d="M 31.767428,15.092436 V 4.0706839 c 0,-2.0233855 -1.628789,-3.65217471 -3.652173,-3.65217471 H 17.092935 V 15.092436 Z" /><path
         id="path24"
         style="fill:#201e57;fill-opacity:1;stroke-width:9.0239"
         d="m 17.092935,31.767428 h 11.02232 c 2.023384,0 3.652173,-1.628789 3.652173,-3.652173 V 17.093502 H 17.092935 Z" /><path
         id="path23"
         style="fill:#201e57;fill-opacity:1;stroke-width:9.0239"
         d="m 0.41850919,17.093502 v 11.021753 c 0,2.023384 1.62878921,3.652173 3.65217471,3.652173 H 15.093002 V 17.093502 Z" /><path
         id="path22"
         style="fill:#201e57;fill-opacity:1;stroke-width:9.0239"
         d="M 15.093002,0.41850919 H 4.0706839 c -2.0233855,0 -3.65217471,1.62878921 -3.65217471,3.65217471 V 15.092436 H 15.093002 Z" /><path
         sodipodi:type="star"
         style="fill:#e1ec00;fill-opacity:1;stroke-width:2.165"
         id="path4"
         inkscape:flatsided="false"
         sodipodi:sides="5"
         sodipodi:cx="-21.541405"
         sodipodi:cy="-3.4320204"
         sodipodi:r1="5.3605099"
         sodipodi:r2="2.6802549"
         sodipodi:arg1="0.78539816"
         sodipodi:arg2="1.4137167"
         inkscape:rounded="0"
         inkscape:randomized="0"
         d="m -17.750952,0.35843244 -3.371168,-1.14319631 -2.852905,2.12899277 0.0455,-3.5594391 -2.906389,-2.0553787 3.399287,-1.056658 1.056658,-3.3992866 2.055379,2.9063884 3.559439,-0.045496 -2.128993,2.8529048 z"
         inkscape:transform-center-x="-0.31409483"
         inkscape:transform-center-y="0.061684947"
         transform="matrix(0.68716791,0.39557569,-0.39557569,0.68716791,38.436952,35.09737)" /><path
         sodipodi:type="star"
         style="fill:#e1ec00;fill-opacity:1;stroke-width:2.165"
         id="path5"
         inkscape:flatsided="false"
         sodipodi:sides="5"
         sodipodi:cx="-21.541405"
         sodipodi:cy="-3.4320204"
         sodipodi:r1="5.3605099"
         sodipodi:r2="2.6802549"
         sodipodi:arg1="0.78539816"
         sodipodi:arg2="1.4137167"
         inkscape:rounded="0"
         inkscape:randomized="0"
         d="m -17.750952,0.35843244 -3.371168,-1.14319631 -2.852905,2.12899277 0.0455,-3.5594391 -2.906389,-2.0553787 3.399287,-1.056658 1.056658,-3.3992866 2.055379,2.9063884 3.559439,-0.045496 -2.128993,2.8529048 z"
         inkscape:transform-center-x="-0.2004028"
         inkscape:transform-center-y="0.039357645"
         transform="matrix(0.4384341,0.25238936,-0.25238936,0.4384341,18.899609,32.104547)" /><path
         id="path6"
         style="fill:#e1ec00;fill-opacity:1;stroke-width:6.59191"
         d="M 9.2123172,1.9196297 A 10.672028,10.672028 0 0 0 4.2392607,16.168898 10.672028,10.672028 0 0 0 18.487796,21.144052 10.672028,10.672028 0 0 0 20.532507,19.820345 10.672028,10.672028 0 0 1 8.5926029,14.068481 10.672028,10.672028 0 0 1 11.562925,1.1104407 10.672028,10.672028 0 0 0 9.2123172,1.9196297 Z" /><path
         sodipodi:type="star"
         style="fill:#e1ec00;fill-opacity:1;stroke-width:2.165"
         id="path7"
         inkscape:flatsided="false"
         sodipodi:sides="5"
         sodipodi:cx="-21.541405"
         sodipodi:cy="-3.4320204"
         sodipodi:r1="5.3605099"
         sodipodi:r2="2.6802549"
         sodipodi:arg1="0.78539816"
         sodipodi:arg2="1.4137167"
         inkscape:rounded="0"
         inkscape:randomized="0"
         d="m -17.750952,0.35843244 -3.371168,-1.14319631 -2.852905,2.12899277 0.0455,-3.5594391 -2.906389,-2.0553787 3.399287,-1.056658 1.056658,-3.3992866 2.055379,2.9063884 3.559439,-0.045496 -2.128993,2.8529048 z"
         inkscape:transform-center-x="-0.20040308"
         inkscape:transform-center-y="0.039355688"
         transform="matrix(0.4384341,0.25238936,-0.25238936,0.4384341,26.09266,34.138332)" /><path
         id="path21"
         style="fill:#ffffff;fill-opacity:1;stroke-width:9.0239"
         d="M 15.093002,0.41850919 V 15.092436 H 0.41850919 v 2.001066 H 15.093002 v 14.673926 h 1.999933 V 17.093502 H 31.767428 V 15.092436 H 17.092935 V 0.41850919 Z" /></g></g></svg>
