<svg xmlns="http://www.w3.org/2000/svg" xmlns:xlink="http://www.w3.org/1999/xlink" width="500" zoomAndPan="magnify" viewBox="0 0 375 374.999991" height="500" preserveAspectRatio="xMidYMid meet" version="1.0"><defs><clipPath id="35ba2fdc71"><path d="M 28.914062 28.914062 L 346.164062 28.914062 L 346.164062 346.164062 L 28.914062 346.164062 Z M 28.914062 28.914062 " clip-rule="nonzero"/></clipPath><clipPath id="c8578f0999"><path d="M 196.644531 128 L 246 128 L 246 177.785156 L 196.644531 177.785156 Z M 196.644531 128 " clip-rule="nonzero"/></clipPath><clipPath id="599a561175"><path d="M 236 98.285156 L 275.394531 98.285156 L 275.394531 137 L 236 137 Z M 236 98.285156 " clip-rule="nonzero"/></clipPath></defs><rect x="-37.5" width="450" fill="#ffffff" y="-37.499999" height="449.999989" fill-opacity="1"/><rect x="-37.5" width="450" fill="#0c0e47" y="-37.499999" height="449.999989" fill-opacity="1"/><g clip-path="url(#35ba2fdc71)"><path fill="#402456" d="M 346.164062 222.789062 L 346.164062 240.414062 L 328.539062 240.414062 L 328.539062 275.664062 L 310.914062 275.664062 L 310.914062 293.289062 L 293.289062 293.289062 L 293.289062 310.914062 L 275.664062 310.914062 L 275.664062 328.539062 L 240.414062 328.539062 L 240.414062 346.164062 L 134.664062 346.164062 L 134.664062 328.539062 L 99.414062 328.539062 L 99.414062 310.914062 L 81.789062 310.914062 L 81.789062 293.289062 L 64.164062 293.289062 L 64.164062 275.664062 L 46.539062 275.664062 L 46.539062 240.414062 L 28.914062 240.414062 L 28.914062 134.664062 L 46.539062 134.664062 L 46.539062 99.414062 L 64.164062 99.414062 L 64.164062 81.789062 L 81.789062 81.789062 L 81.789062 64.164062 L 99.414062 64.164062 L 99.414062 46.539062 L 134.664062 46.539062 L 134.664062 28.914062 L 152.289062 28.914062 L 152.289062 46.539062 L 169.914062 46.539062 L 169.914062 64.164062 L 152.289062 64.164062 L 152.289062 81.789062 L 134.664062 81.789062 L 134.664062 117.039062 L 117.039062 117.039062 L 117.039062 187.539062 L 134.664062 187.539062 L 134.664062 222.789062 L 152.289062 222.789062 L 152.289062 240.414062 L 187.539062 240.414062 L 187.539062 258.039062 L 258.039062 258.039062 L 258.039062 240.414062 L 293.289062 240.414062 L 293.289062 222.789062 L 310.914062 222.789062 L 310.914062 205.164062 L 328.539062 205.164062 L 328.539062 222.789062 Z M 346.164062 222.789062 " fill-opacity="1" fill-rule="nonzero"/></g><path fill="#f6d038" d="M 266.851562 266.851562 L 258.039062 275.664062 L 222.789062 284.476562 L 187.539062 275.664062 L 152.289062 258.039062 L 134.664062 258.039062 L 134.664062 240.414062 L 108.226562 231.601562 L 108.226562 213.976562 L 117.039062 205.164062 L 117.039062 187.539062 L 99.414062 187.539062 L 90.601562 152.289062 L 99.414062 117.039062 L 117.039062 81.789062 L 125.851562 72.976562 L 117.039062 64.164062 L 99.414062 64.164062 L 99.414062 81.789062 L 81.789062 81.789062 L 81.789062 99.414062 L 64.164062 99.414062 L 64.164062 134.664062 L 46.539062 134.664062 L 46.539062 240.414062 L 64.164062 240.414062 L 64.164062 258.039062 L 81.789062 275.664062 L 108.226562 284.476562 L 108.226562 302.101562 L 161.101562 302.101562 L 161.101562 319.726562 L 240.414062 310.914062 L 275.664062 293.289062 L 284.476562 284.476562 L 284.476562 266.851562 Z M 266.851562 266.851562 " fill-opacity="1" fill-rule="nonzero"/><path fill="#e89f2f" d="M 99.414062 134.664062 L 99.414062 117.039062 L 81.789062 117.039062 L 81.789062 134.664062 L 90.601562 143.476562 Z M 99.414062 134.664062 " fill-opacity="1" fill-rule="nonzero"/><path fill="#e89f2f" d="M 169.914062 293.289062 L 117.039062 293.289062 L 117.039062 275.664062 L 81.789062 275.664062 L 81.789062 293.289062 L 99.414062 293.289062 L 99.414062 310.914062 L 134.664062 310.914062 L 134.664062 328.539062 L 240.414062 328.539062 L 240.414062 310.914062 L 169.914062 310.914062 Z M 169.914062 293.289062 " fill-opacity="1" fill-rule="nonzero"/><path fill="#e89f2f" d="M 302.101562 249.226562 L 275.664062 275.664062 L 275.664062 293.289062 L 293.289062 293.289062 L 293.289062 275.664062 L 310.914062 275.664062 L 310.914062 258.039062 Z M 302.101562 249.226562 " fill-opacity="1" fill-rule="nonzero"/><path fill="#e89f2f" d="M 249.226562 284.476562 L 240.414062 293.289062 L 240.414062 310.914062 L 275.664062 310.914062 L 275.664062 293.289062 L 258.039062 293.289062 Z M 249.226562 284.476562 " fill-opacity="1" fill-rule="nonzero"/><path fill="#e89f2f" d="M 90.601562 169.914062 L 64.164062 169.914062 L 64.164062 187.539062 L 81.789062 187.539062 Z M 90.601562 169.914062 " fill-opacity="1" fill-rule="nonzero"/><path fill="#e89f2f" d="M 99.414062 205.164062 L 99.414062 222.789062 L 81.789062 222.789062 L 81.789062 240.414062 L 99.414062 240.414062 L 99.414062 258.039062 L 117.039062 258.039062 L 117.039062 240.414062 L 134.664062 240.414062 L 134.664062 222.789062 L 117.039062 222.789062 L 117.039062 205.164062 Z M 99.414062 205.164062 " fill-opacity="1" fill-rule="nonzero"/><path fill="#e89f2f" d="M 64.164062 258.039062 L 81.789062 258.039062 L 81.789062 275.664062 L 64.164062 275.664062 Z M 64.164062 258.039062 " fill-opacity="1" fill-rule="nonzero"/><path fill="#fff0c6" d="M 134.664062 240.414062 L 152.289062 240.414062 L 152.289062 258.039062 L 134.664062 258.039062 Z M 134.664062 240.414062 " fill-opacity="1" fill-rule="nonzero"/><path fill="#fff0c6" d="M 99.414062 81.789062 L 117.039062 81.789062 L 117.039062 117.039062 L 99.414062 117.039062 Z M 99.414062 81.789062 " fill-opacity="1" fill-rule="nonzero"/><path fill="#fff0c6" d="M 81.789062 134.664062 L 99.414062 134.664062 L 99.414062 187.539062 L 81.789062 187.539062 Z M 81.789062 134.664062 " fill-opacity="1" fill-rule="nonzero"/><path fill="#fff0c6" d="M 293.289062 240.414062 L 310.914062 240.414062 L 310.914062 258.039062 L 293.289062 258.039062 Z M 293.289062 240.414062 " fill-opacity="1" fill-rule="nonzero"/><path fill="#fff0c6" d="M 117.039062 64.164062 L 134.664062 64.164062 L 134.664062 81.789062 L 117.039062 81.789062 Z M 117.039062 64.164062 " fill-opacity="1" fill-rule="nonzero"/><path fill="#fff0c6" d="M 134.664062 46.539062 L 152.289062 46.539062 L 152.289062 64.164062 L 134.664062 64.164062 Z M 134.664062 46.539062 " fill-opacity="1" fill-rule="nonzero"/><path fill="#fff0c6" d="M 310.914062 222.789062 L 328.539062 222.789062 L 328.539062 240.414062 L 310.914062 240.414062 Z M 310.914062 222.789062 " fill-opacity="1" fill-rule="nonzero"/><path fill="#fff0c6" d="M 187.539062 275.664062 L 258.039062 275.664062 L 258.039062 293.289062 L 187.539062 293.289062 Z M 187.539062 275.664062 " fill-opacity="1" fill-rule="nonzero"/><path fill="#fff0c6" d="M 258.039062 258.039062 L 293.289062 258.039062 L 293.289062 275.664062 L 258.039062 275.664062 Z M 258.039062 258.039062 " fill-opacity="1" fill-rule="nonzero"/><path fill="#fff0c6" d="M 152.289062 258.039062 L 187.539062 258.039062 L 187.539062 275.664062 L 152.289062 275.664062 Z M 152.289062 258.039062 " fill-opacity="1" fill-rule="nonzero"/><g clip-path="url(#c8578f0999)"><path fill="#f6d038" d="M 245.957031 151.835938 L 245.957031 154.183594 L 236.121094 154.183594 L 236.121094 156.53125 L 231.867188 156.53125 L 231.867188 158.878906 L 229.519531 158.878906 L 229.519531 161.226562 L 227.171875 161.226562 L 227.171875 168.273438 L 224.824219 168.273438 L 224.824219 172.96875 L 222.476562 172.96875 L 222.476562 177.664062 L 220.128906 177.664062 L 220.128906 170.621094 L 217.78125 170.621094 L 217.78125 163.574219 L 215.429688 163.574219 L 215.429688 158.878906 L 213.082031 158.878906 L 213.082031 156.53125 L 206.617188 156.53125 L 206.617188 154.183594 L 196.644531 154.183594 L 196.644531 151.835938 L 203.066406 151.835938 L 203.066406 149.484375 L 210.734375 149.484375 L 210.734375 147.136719 L 215.429688 147.136719 L 215.429688 142.441406 L 217.78125 142.441406 L 217.78125 135.398438 L 220.128906 135.398438 L 220.128906 128.351562 L 222.476562 128.351562 L 222.476562 132.820312 L 224.824219 132.820312 L 224.824219 142.441406 L 227.171875 142.441406 L 227.171875 147.136719 L 231.867188 147.136719 L 231.867188 149.484375 L 238.914062 149.484375 L 238.914062 151.835938 Z M 245.957031 151.835938 " fill-opacity="1" fill-rule="nonzero"/></g><g clip-path="url(#599a561175)"><path fill="#f6d038" d="M 275.035156 116.515625 L 275.035156 118.339844 L 267.398438 118.339844 L 267.398438 120.164062 L 264.097656 120.164062 L 264.097656 121.984375 L 262.273438 121.984375 L 262.273438 123.808594 L 260.449219 123.808594 L 260.449219 129.277344 L 258.628906 129.277344 L 258.628906 132.921875 L 256.804688 132.921875 L 256.804688 136.570312 L 254.980469 136.570312 L 254.980469 131.101562 L 253.160156 131.101562 L 253.160156 125.632812 L 251.335938 125.632812 L 251.335938 121.984375 L 249.511719 121.984375 L 249.511719 120.164062 L 244.496094 120.164062 L 244.496094 118.339844 L 236.753906 118.339844 L 236.753906 116.515625 L 241.738281 116.515625 L 241.738281 114.695312 L 247.691406 114.695312 L 247.691406 112.871094 L 251.335938 112.871094 L 251.335938 109.226562 L 253.160156 109.226562 L 253.160156 103.757812 L 254.980469 103.757812 L 254.980469 98.289062 L 256.804688 98.289062 L 256.804688 101.757812 L 258.628906 101.757812 L 258.628906 109.226562 L 260.449219 109.226562 L 260.449219 112.871094 L 264.097656 112.871094 L 264.097656 114.695312 L 269.566406 114.695312 L 269.566406 116.515625 Z M 275.035156 116.515625 " fill-opacity="1" fill-rule="nonzero"/></g><path fill="#f6d038" d="M 262.347656 147.625 L 266.839844 147.625 L 266.839844 152.113281 L 262.347656 152.113281 Z M 262.347656 147.625 " fill-opacity="1" fill-rule="nonzero"/><path fill="#f6d038" d="M 219.058594 109.289062 L 223.546875 109.289062 L 223.546875 113.777344 L 219.058594 113.777344 Z M 219.058594 109.289062 " fill-opacity="1" fill-rule="nonzero"/></svg>